# xmcd
#
# Track frame offsets: 
#        150
#        10978
#        23165
#        34593
#        46810
#        58255
#        70128
#        83835
#        93310
#        105195
#        117963
#        131920
#        144523
#        156135
#        168428
#        182258
#        193740
#        207053
#        220415
#
# Disc length: 3240 seconds
#
# Revision: 5
# Processed by: cddbd v1.5.1PL0 Copyright (c) Steve Scherf et al.
# Submitted via: ExactAudioCopy v0.95a5
#
DISCID=fe0ca613
DTITLE=Various Artist - Superblues, Volume 3
DYEAR=1995
DGENRE=Blues
TTITLE0=Elmore James - Madison Blues
TTITLE1=Billy Boy - I Wish You Would
TTITLE2=Frankie Lee Sims - Lucy Mae Blues
TTITLE3=Little Walter - Last Night
TTITLE4=Jimmy Liggins and His 3-D Music - Drunk
TTITLE5=Larry Dale - Drinkin' Wine Spo-Dee-O-Dee
TTITLE6=Joe Liggins and His Honeydrippers - Pink Champagne
TTITLE7=Camille Howard - X-Temporaneous Boogie
TTITLE8=Piano Red with Bertha Colbert - I Ain't Nobody's Fool
TTITLE9=Mercy Dee Walton - One Room Country Shack
TTITLE10=Eddie Taylor - Big Town Playboy
TTITLE11=Jimmy Reed and His Trio - I Found My Baby
TTITLE12=Larry Birdsong with Louis Brooks and His Hi-Toppers - Pleadin
TTITLE12=' for Love
TTITLE13=Larry Davis - Texas Flood
TTITLE14=Joe Morris and His Orchestra Featuring Laurie Tate - Anytime,
TTITLE14=Anyplace, Anywhere
TTITLE15=Ted Taylor and His Band - Be Ever Wonderful
TTITLE16=Guitar Gable - Irene
TTITLE17=Little Johnny Taylor - I Know You Hear Me Calling
TTITLE18=Little Milton - Walking the Back Streets and Crying
EXTD=LABEL =Stax Records - Fantasy, Inc.\nID =SCD-8595-2\nUPC =02521
EXTD=8-8595-23\nCOPYRIGHT =1995\n*****\nsubtitle ="All Time Classic B
EXTD=lues Hits"
EXTT0=
EXTT1=
EXTT2=
EXTT3=
EXTT4=
EXTT5=
EXTT6=
EXTT7=
EXTT8=
EXTT9=
EXTT10=
EXTT11=
EXTT12=
EXTT13=
EXTT14=
EXTT15=
EXTT16=
EXTT17=
EXTT18=
PLAYORDER=
